<?xml version="1.0" standalone="no"?>
<svg xmlns:xlink="http://www.w3.org/1999/xlink" id="wave" style="transform:rotate(180deg); transition: 0.3s" viewBox="0 0 1440 100" version="1.1" xmlns="http://www.w3.org/2000/svg"><defs><linearGradient id="sw-gradient-0" x1="0" x2="0" y1="1" y2="0"><stop stop-color="rgba(255, 249, 234, 1)" offset="0%"/><stop stop-color="rgba(255, 249, 234, 1)" offset="100%"/></linearGradient></defs><path style="transform:translate(0, 0px); opacity:1" fill="url(#sw-gradient-0)" d="M0,0L30,13.3C60,27,120,53,180,60C240,67,300,53,360,46.7C420,40,480,40,540,38.3C600,37,660,33,720,26.7C780,20,840,10,900,10C960,10,1020,20,1080,28.3C1140,37,1200,43,1260,48.3C1320,53,1380,57,1440,50C1500,43,1560,27,1620,28.3C1680,30,1740,50,1800,61.7C1860,73,1920,77,1980,78.3C2040,80,2100,80,2160,81.7C2220,83,2280,87,2340,78.3C2400,70,2460,50,2520,38.3C2580,27,2640,23,2700,31.7C2760,40,2820,60,2880,70C2940,80,3000,80,3060,80C3120,80,3180,80,3240,70C3300,60,3360,40,3420,40C3480,40,3540,60,3600,71.7C3660,83,3720,87,3780,81.7C3840,77,3900,63,3960,48.3C4020,33,4080,17,4140,21.7C4200,27,4260,53,4290,66.7L4320,80L4320,100L4290,100C4260,100,4200,100,4140,100C4080,100,4020,100,3960,100C3900,100,3840,100,3780,100C3720,100,3660,100,3600,100C3540,100,3480,100,3420,100C3360,100,3300,100,3240,100C3180,100,3120,100,3060,100C3000,100,2940,100,2880,100C2820,100,2760,100,2700,100C2640,100,2580,100,2520,100C2460,100,2400,100,2340,100C2280,100,2220,100,2160,100C2100,100,2040,100,1980,100C1920,100,1860,100,1800,100C1740,100,1680,100,1620,100C1560,100,1500,100,1440,100C1380,100,1320,100,1260,100C1200,100,1140,100,1080,100C1020,100,960,100,900,100C840,100,780,100,720,100C660,100,600,100,540,100C480,100,420,100,360,100C300,100,240,100,180,100C120,100,60,100,30,100L0,100Z"/></svg>